<svg xmlns="http://www.w3.org/2000/svg" version="1.1" xmlns:xlink="http://www.w3.org/1999/xlink" xmlns:svgjs="http://svgjs.dev/svgjs" width="2000" height="424" viewBox="0 0 2000 424"><g transform="matrix(1,0,0,1,-1.2121212121212466,-2.095377594257826)"><svg viewBox="0 0 396 84" data-background-color="#ffffff" preserveAspectRatio="xMidYMid meet" height="424" width="2000" xmlns="http://www.w3.org/2000/svg" xmlns:xlink="http://www.w3.org/1999/xlink"><g id="tight-bounds" transform="matrix(1,0,0,1,0.2400000000000091,0.4151219762208882)"><svg viewBox="0 0 395.52 83.16975604755824" height="83.16975604755824" width="395.52"><g><svg viewBox="0 0 524.7014346808888 110.33396622222223" height="83.16975604755824" width="395.52"><g transform="matrix(1,0,0,1,129.18143468088888,15.248760888888896)"><svg viewBox="0 0 395.52 79.83644444444444" height="79.83644444444444" width="395.52"><g id="textblocktransform"><svg viewBox="0 0 395.52 79.83644444444444" height="79.83644444444444" width="395.52" id="textblock"><g><svg viewBox="0 0 395.52 79.83644444444444" height="79.83644444444444" width="395.52"><g transform="matrix(1,0,0,1,0,0)"><svg width="395.52" viewBox="0.35 -37.6 188.98000000000002 38.15" height="79.83644444444444" data-palette-color="#3d3839"><path d="M13.4 0L9.6 0 9.6-30.1 0.35-30.1 0.35-32.5 22.7-32.5 22.7-30.1 13.4-30.1 13.4 0ZM33.1 0.5Q28.1 0.5 25.25-2.63 22.4-5.75 22.4-12L22.4-12Q22.4-18.3 25.15-21.9 27.9-25.5 32.65-25.5L32.65-25.5Q36.95-25.5 39.27-22.53 41.6-19.55 41.6-14.1L41.6-14.1Q41.6-13.15 41.5-12.55 41.4-11.95 41.35-11.8L41.35-11.8 26.2-11.8Q26.2-1.7 33.5-1.7L33.5-1.7Q35.5-1.7 36.92-2.43 38.35-3.15 39.15-3.98 39.95-4.8 39.95-4.95L39.95-4.95 41.4-3.75Q41.4-3.55 40.45-2.48 39.5-1.4 37.65-0.45 35.8 0.5 33.1 0.5L33.1 0.5ZM26.25-13.9L38.2-13.9 38.25-14.85Q38.25-23.35 32.65-23.35L32.65-23.35Q29.7-23.35 28.1-21.03 26.5-18.7 26.25-13.9L26.25-13.9ZM55.85 0.5Q50.65 0.5 47.85-2.7 45.05-5.9 45.05-12.25L45.05-12.25Q45.05-18.65 47.82-22.08 50.6-25.5 55.95-25.5L55.95-25.5Q57.7-25.5 59.25-25.03 60.8-24.55 61.87-23.98 62.95-23.4 62.95-23.35L62.95-23.35 62.5-21.3Q62.3-21.45 61.42-21.93 60.55-22.4 59.17-22.85 57.8-23.3 56.35-23.3L56.35-23.3Q52.5-23.3 50.7-20.75 48.9-18.2 48.9-12.3L48.9-12.3Q48.9-6.6 50.8-4.15 52.7-1.7 56.15-1.7L56.15-1.7Q58.1-1.7 59.47-2.4 60.85-3.1 61.6-3.88 62.35-4.65 62.35-4.8L62.35-4.8 63.95-3.75Q63.95-3.55 63.05-2.48 62.15-1.4 60.35-0.45 58.55 0.5 55.85 0.5L55.85 0.5ZM68.04 0L68.04-37.4 71.69-37.6 71.69-22.75 71.74-22.75Q71.74-22.75 72.37-23.43 72.99-24.1 74.84-24.8 76.69-25.5 78.89-25.5L78.89-25.5Q82.54-25.5 84.52-23.48 86.49-21.45 86.49-17.45L86.49-17.45 86.49 0 82.89 0 82.89-17Q82.89-22.85 77.69-22.85L77.69-22.85Q75.89-22.85 74.54-22.3 73.19-21.75 72.44-21.1 71.69-20.45 71.69-20.35L71.69-20.35 71.69 0 68.04 0ZM107.79 0.5Q105.74 0.5 104.44 0.03 103.14-0.45 102.51-0.98 101.89-1.5 101.89-1.6L101.89-1.6 102.89-3.55Q102.89-3.5 103.36-3.08 103.84-2.65 104.74-2.27 105.64-1.9 106.94-1.9L106.94-1.9Q109.04-1.9 110.31-3.53 111.59-5.15 111.59-9.55L111.59-9.55 111.59-32.5 115.34-32.5 115.34-9.55Q115.34-3.95 113.34-1.73 111.34 0.5 107.79 0.5L107.79 0.5ZM132.19 0.5Q126.99 0.5 124.26-2.9 121.54-6.3 121.54-12.5L121.54-12.5Q121.54-18.7 124.26-22.1 126.99-25.5 132.19-25.5L132.19-25.5Q137.39-25.5 140.11-22.1 142.84-18.7 142.84-12.5L142.84-12.5Q142.84-6.35 140.06-2.93 137.29 0.5 132.19 0.5L132.19 0.5ZM132.19-1.7Q135.69-1.7 137.34-4.38 138.99-7.05 138.99-12.5L138.99-12.5Q138.99-17.9 137.34-20.6 135.69-23.3 132.19-23.3L132.19-23.3Q128.69-23.3 127.04-20.63 125.39-17.95 125.39-12.5L125.39-12.5Q125.39-7.05 127.04-4.38 128.69-1.7 132.19-1.7L132.19-1.7ZM158.38 0.55Q155.78 0.55 154.18-0.28 152.58-1.1 151.78-1.95L151.78-1.95 151.08 0 148.48 0 148.48-37.4 152.13-37.6 152.13-22.15 152.18-22.15Q152.18-22.3 152.91-23.18 153.63-24.05 155.11-24.8 156.58-25.55 158.83-25.55L158.83-25.55Q163.28-25.55 165.98-22.28 168.68-19 168.68-13.2L168.68-13.2Q168.68-6.9 166.03-3.18 163.38 0.55 158.38 0.55L158.38 0.55ZM157.43-1.85Q161.28-1.85 163.06-4.67 164.83-7.5 164.83-13.1L164.83-13.1Q164.83-18.3 163.03-20.73 161.23-23.15 157.78-23.15L157.78-23.15Q155.28-23.15 153.93-21.85 152.58-20.55 152.13-19.55L152.13-19.55 152.13-4.1Q152.48-3.45 153.83-2.65 155.18-1.85 157.43-1.85L157.43-1.85ZM180.48 0.5Q177.83 0.5 176.01-0.33 174.18-1.15 173.26-2.1 172.33-3.05 172.33-3.2L172.33-3.2 173.58-4.95Q173.58-4.85 174.38-4 175.18-3.15 176.58-2.43 177.98-1.7 179.88-1.7L179.88-1.7Q182.68-1.7 184.11-3.1 185.53-4.5 185.53-6.5L185.53-6.5Q185.53-7.95 184.81-8.9 184.08-9.85 183.01-10.38 181.93-10.9 180.03-11.55L180.03-11.55Q177.83-12.35 176.53-13.03 175.23-13.7 174.31-15.05 173.38-16.4 173.38-18.55L173.38-18.55Q173.38-21.75 175.71-23.63 178.03-25.5 181.68-25.5L181.68-25.5Q183.28-25.5 184.76-25.08 186.23-24.65 187.13-24.18 188.03-23.7 188.28-23.55L188.28-23.55 187.68-21.4Q187.48-21.55 186.68-22.03 185.88-22.5 184.61-22.95 183.33-23.4 181.98-23.4L181.98-23.4Q179.68-23.4 178.26-22.25 176.83-21.1 176.83-19.35L176.83-19.35Q176.83-17.9 177.58-16.93 178.33-15.95 179.46-15.4 180.58-14.85 182.48-14.15L182.48-14.15Q184.68-13.4 186.06-12.68 187.43-11.95 188.38-10.6 189.33-9.25 189.33-7.1L189.33-7.1Q189.33-3.85 187.08-1.68 184.83 0.5 180.48 0.5L180.48 0.5Z" opacity="1" transform="matrix(1,0,0,1,0,0)" fill="#3d3839" class="wordmark-text-0" data-fill-palette-color="primary" id="text-0"></path></svg></g></svg></g></svg></g></svg></g><g><svg viewBox="0 0 110.33396622222223 110.33396622222223" height="110.33396622222223" width="110.33396622222223"><g><svg xmlns="http://www.w3.org/2000/svg" xmlns:xlink="http://www.w3.org/1999/xlink" version="1.1" x="0" y="0" viewBox="26 26 460 460" style="enable-background:new 0 0 512 512;" xml:space="preserve" height="110.33396622222223" width="110.33396622222223" class="icon-icon-0" data-fill-palette-color="accent" id="icon-0"><g fill="#ffc604" data-fill-palette-color="accent"><rect x="190" y="190" width="132" height="132" fill="#ffc604" data-fill-palette-color="accent"></rect><path d="M336 150H176C161.6 150 150 161.6 150 176V336C150 350.4 161.6 362 176 362H336C350.4 362 362 350.4 362 336V176C362 161.6 350.4 150 336 150M334 328C334 331.3 331.3 334 328 334H184C180.7 334 178 331.3 178 328V184C178 180.7 180.7 178 184 178H328C331.3 178 334 180.7 334 184z" fill="#ffc604" data-fill-palette-color="accent"></path><path d="M178 134C177.9 137.2 180.4 139.9 183.6 140H213.8C217.2 140 219.9 137.4 220 134V84C219.9 80.6 217.1 78 213.8 78H213V54C212.9 50.6 210.1 48 206.8 48H205V32C205 28.7 202.3 26 199 26S193 28.7 193 32V48H190.8C187.6 48 185 50.6 185 53.8V78H183.8C180.6 78 178 80.6 178 83.8z" fill="#ffc604" data-fill-palette-color="accent"></path><path d="M298.2 140H328.2C331.4 140 334 137.4 334 134.2V84C334.1 80.8 331.6 78.1 328.4 78H327V54C327.1 50.8 324.6 48.1 321.4 48H319V32C319 28.7 316.3 26 313 26S307 28.7 307 32V48H305.2C301.8 48 299.1 50.6 299 54V78H298.2C294.8 78 292.1 80.6 292 84V134C292.1 137.4 294.9 140 298.2 140" fill="#ffc604" data-fill-palette-color="accent"></path><path d="M241 140H271C274.3 140 277 137.3 277 134V84C277 80.7 274.3 78 271 78H270V54C270 50.7 267.3 48 264 48H262V32C262 28.7 259.3 26 256 26S250 28.7 250 32V48H248C244.7 48 242 50.7 242 54V78H241C237.7 78 235 80.7 235 84V134C235 137.3 237.7 140 241 140" fill="#ffc604" data-fill-palette-color="accent"></path><path d="M334 378C334.1 374.8 331.6 372.1 328.4 372H298.2C294.8 372 292.1 374.6 292 378V428C292.1 431.4 294.9 434 298.2 434H299V458C299.1 461.4 301.9 464 305.2 464H307V480C307 483.3 309.7 486 313 486S319 483.3 319 480V464H321.2C324.4 464 327 461.4 327 458.2V434H328.2C331.4 434 334 431.4 334 428.2z" fill="#ffc604" data-fill-palette-color="accent"></path><path d="M213.8 372H183.8C180.6 372 178 374.6 178 377.8V428C177.9 431.2 180.4 433.9 183.6 434H185V458C184.9 461.2 187.4 463.9 190.6 464H193V480C193 483.3 195.7 486 199 486S205 483.3 205 480V464H206.8C210.2 464 212.9 461.4 213 458V434H213.8C217.2 434 219.9 431.4 220 428V378C219.9 374.6 217.1 372 213.8 372" fill="#ffc604" data-fill-palette-color="accent"></path><path d="M271 372H241C237.7 372 235 374.7 235 378V428C235 431.3 237.7 434 241 434H242V458C242 461.3 244.7 464 248 464H250V480C250 483.3 252.7 486 256 486S262 483.3 262 480V464H264C267.3 464 270 461.3 270 458V434H271C274.3 434 277 431.3 277 428V378C277 374.7 274.3 372 271 372" fill="#ffc604" data-fill-palette-color="accent"></path><path d="M378 220H428C431.4 219.9 434 217.1 434 213.8V213H458C461.4 212.9 464 210.1 464 206.8V205H480C483.3 205 486 202.3 486 199S483.3 193 480 193H464V190.8C464 187.6 461.4 185 458.2 185H434V183.8C434 180.6 431.4 178 428.2 178H378C374.8 177.9 372.1 180.4 372 183.6V213.8C372 217.1 374.6 219.9 378 220" fill="#ffc604" data-fill-palette-color="accent"></path><path d="M480 307H464V305.2C464 301.8 461.4 299.1 458 299H434V298.2C434 294.8 431.4 292.1 428 292H378C374.6 292.1 372 294.9 372 298.2V328.2C372 331.4 374.6 334 377.8 334H428C431.2 334.1 433.9 331.6 434 328.4V327H458C461.2 327.1 463.9 324.6 464 321.4V319H480C483.3 319 486 316.3 486 313S483.3 307 480 307" fill="#ffc604" data-fill-palette-color="accent"></path><path d="M480 250H464V248C464 244.7 461.3 242 458 242H434V241C434 237.7 431.3 235 428 235H378C374.7 235 372 237.7 372 241V271C372 274.3 374.7 277 378 277H428C431.3 277 434 274.3 434 271V270H458C461.3 270 464 267.3 464 264V262H480C483.3 262 486 259.3 486 256S483.3 250 480 250" fill="#ffc604" data-fill-palette-color="accent"></path><path d="M134 292H84C80.6 292.1 78 294.9 78 298.2V299H54C50.6 299.1 48 301.9 48 305.2V307H32C28.7 307 26 309.7 26 313S28.7 319 32 319H48V321.2C48 324.4 50.6 327 53.8 327H78V328.2C78 331.4 80.6 334 83.8 334H134C137.2 334.1 139.9 331.6 140 328.4V298.2C140 294.9 137.4 292.1 134 292" fill="#ffc604" data-fill-palette-color="accent"></path><path d="M134.2 178H84C80.8 177.9 78.1 180.4 78 183.6V185H54C50.8 184.9 48.1 187.4 48 190.6V193H32C28.7 193 26 195.7 26 199S28.7 205 32 205H48V206.8C48 210.2 50.6 212.9 54 213H78V213.8C78 217.2 80.6 219.9 84 220H134C137.4 219.9 140 217.1 140 213.8V183.8C140 180.6 137.4 178 134.2 178" fill="#ffc604" data-fill-palette-color="accent"></path><path d="M134 235H84C80.7 235 78 237.7 78 241V242H54C50.7 242 48 244.7 48 248V250H32C28.7 250 26 252.7 26 256S28.7 262 32 262H48V264C48 267.3 50.7 270 54 270H78V271C78 274.3 80.7 277 84 277H134C137.3 277 140 274.3 140 271V241C140 237.7 137.3 235 134 235" fill="#ffc604" data-fill-palette-color="accent"></path></g></svg></g></svg></g></svg></g><defs></defs></svg><rect width="395.52" height="83.16975604755824" fill="none" stroke="none" visibility="hidden"></rect></g></svg></g></svg>